<?xml version="1.0" encoding="UTF-8"?>
<svg width="220" height="28" viewBox="0 0 220 28" fill="none" xmlns="http://www.w3.org/2000/svg">
  <!-- Hawaii Islands Icon -->
  <g transform="translate(0, 2) scale(0.024)">
    <circle cx="182.4" cy="244.8" r="45" fill="#C4704F"/>
    <circle cx="140.4" cy="286.8" r="45" fill="#C4704F"/>
    <circle cx="182.4" cy="286.8" r="45" fill="#C4704F"/>
    <circle cx="223.2" cy="286.8" r="45" fill="#C4704F"/>
    <circle cx="182.4" cy="328.8" r="45" fill="#C4704F"/>
    <circle cx="433" cy="349.6" r="45" fill="#C4704F"/>
    <circle cx="391" cy="391.6" r="45" fill="#C4704F"/>
    <circle cx="433" cy="391.6" r="45" fill="#C4704F"/>
    <circle cx="391" cy="433.6" r="45" fill="#C4704F"/>
    <circle cx="433" cy="433.6" r="45" fill="#C4704F"/>
    <circle cx="475" cy="433.6" r="45" fill="#C4704F"/>
    <circle cx="684" cy="495.6" r="45" fill="#C4704F"/>
    <circle cx="726" cy="495.6" r="45" fill="#C4704F"/>
    <circle cx="767.4" cy="495.6" r="45" fill="#C4704F"/>
    <circle cx="767.4" cy="537.6" r="45" fill="#C4704F"/>
    <circle cx="809.4" cy="537.6" r="45" fill="#C4704F"/>
    <circle cx="851.4" cy="537.6" r="45" fill="#C4704F"/>
    <circle cx="726" cy="579.6" r="45" fill="#C4704F"/>
    <circle cx="809.4" cy="579.6" r="45" fill="#C4704F"/>
    <circle cx="851.4" cy="579.6" r="45" fill="#C4704F"/>
    <circle cx="893.4" cy="579.6" r="45" fill="#C4704F"/>
    <circle cx="935.4" cy="579.6" r="45" fill="#C4704F"/>
    <circle cx="851.4" cy="620.4" r="45" fill="#C4704F"/>
    <circle cx="893.4" cy="620.4" r="45" fill="#C4704F"/>
    <circle cx="977.4" cy="704.4" r="45" fill="#C4704F"/>
    <circle cx="977.4" cy="746.4" r="45" fill="#C4704F"/>
    <circle cx="1018.2" cy="746.4" r="45" fill="#C4704F"/>
    <circle cx="1060.2" cy="746.4" r="45" fill="#C4704F"/>
    <circle cx="935.4" cy="788.4" r="45" fill="#C4704F"/>
    <circle cx="977.4" cy="788.4" r="45" fill="#C4704F"/>
    <circle cx="1018.2" cy="788.4" r="45" fill="#C4704F"/>
    <circle cx="1060.2" cy="788.4" r="45" fill="#C4704F"/>
    <circle cx="1101.6" cy="788.4" r="45" fill="#C4704F"/>
    <circle cx="935.4" cy="830.4" r="45" fill="#C4704F"/>
    <circle cx="977.4" cy="830.4" r="45" fill="#C4704F"/>
    <circle cx="1018.2" cy="830.4" r="45" fill="#C4704F"/>
    <circle cx="1060.2" cy="830.4" r="45" fill="#C4704F"/>
    <circle cx="1101.6" cy="830.4" r="45" fill="#C4704F"/>
    <circle cx="1143.6" cy="830.4" r="45" fill="#C4704F"/>
    <circle cx="977.4" cy="871.2" r="45" fill="#C4704F"/>
    <circle cx="1018.2" cy="871.2" r="45" fill="#C4704F"/>
    <circle cx="1060.2" cy="871.2" r="45" fill="#C4704F"/>
    <circle cx="1101.6" cy="871.2" r="45" fill="#C4704F"/>
    <circle cx="1143.6" cy="871.2" r="45" fill="#C4704F"/>
    <circle cx="1185.6" cy="871.2" r="45" fill="#C4704F"/>
    <circle cx="977.4" cy="913.2" r="45" fill="#C4704F"/>
    <circle cx="1018.2" cy="913.2" r="45" fill="#C4704F"/>
    <circle cx="1060.2" cy="913.2" r="45" fill="#C4704F"/>
    <circle cx="1101.6" cy="913.2" r="45" fill="#C4704F"/>
    <circle cx="977.4" cy="955.2" r="45" fill="#C4704F"/>
    <circle cx="1018.2" cy="955.2" r="45" fill="#C4704F"/>
  </g>
  <!-- Wordmark -->
  <text x="36" y="19" font-family="system-ui, -apple-system, 'Segoe UI', Roboto, sans-serif" font-size="16" font-weight="600" letter-spacing="-0.3" fill="#F5F0E8">Plate Lunch Collective</text>
</svg>
