<svg width="128" height="58" viewBox="0 0 128 58" fill="none" xmlns="http://www.w3.org/2000/svg">
  <path transform="translate(0.000,20.000) scale(0.0200,-0.0200)" d="M74 0V710H358Q486 710 558.5 648.0Q631 586 631 478Q631 370 558.5 307.5Q486 245 358 245H226V0ZM226 373H349Q409 373 442.0 399.5Q475 426 475 478Q475 530 442.0 556.0Q409 582 349 582H226Z" fill="#F5F0E8"/>  <path transform="translate(13.040,20.000) scale(0.0200,-0.0200)" d="M206 0Q140 0 103.0 32.5Q66 65 66 140V710H216V156Q216 132 227.0 122.0Q238 112 259 112H295V0Z" fill="#F5F0E8"/>  <path transform="translate(18.900,20.000) scale(0.0200,-0.0200)" d="M225 -12Q141 -12 89.0 26.5Q37 65 37 134Q37 205 81.5 243.5Q126 282 213 300L386 334Q386 439 295 439Q212 439 197 362L46 369Q61 457 125.5 502.5Q190 548 295 548Q415 548 475.5 490.5Q536 433 536 324V141Q536 118 543.5 110.5Q551 103 566 103H581V0Q574 -2 558.5 -4.0Q543 -6 528 -6Q487 -6 454.5 11.5Q422 29 412 77L410 82Q390 39 342.0 13.5Q294 -12 225 -12ZM261 91Q317 91 351.5 124.0Q386 157 386 214V240L264 214Q191 200 191 148Q191 91 261 91Z" fill="#F5F0E8"/>  <path transform="translate(30.380,20.000) scale(0.0200,-0.0200)" d="M288 0Q205 0 166.0 38.5Q127 77 127 161V424H41V536H127V662H277V536H418V424H277V179Q277 140 293.5 126.0Q310 112 343 112H418V0Z" fill="#F5F0E8"/>  <path transform="translate(38.880,20.000) scale(0.0200,-0.0200)" d="M307 -12Q225 -12 164.5 23.0Q104 58 70.5 120.5Q37 183 37 268Q37 352 70.0 415.0Q103 478 163.5 513.0Q224 548 306 548Q386 548 445.0 513.0Q504 478 536.5 413.0Q569 348 569 258V228H192Q195 164 226.5 133.0Q258 102 310 102Q388 102 410 167L561 158Q539 78 471.5 33.0Q404 -12 307 -12ZM192 320H415Q412 379 382.5 408.0Q353 437 306 437Q259 437 228.5 406.5Q198 376 192 320Z" fill="#F5F0E8"/>  <path transform="translate(54.740,20.000) scale(0.0200,-0.0200)" d="M74 0V710H226V128H553V0Z" fill="#F5F0E8"/>  <path transform="translate(66.120,20.000) scale(0.0200,-0.0200)" d="M242 -12Q159 -12 112.5 41.5Q66 95 66 191V536H216V226Q216 164 235.0 135.5Q254 107 295 107Q341 107 366.5 138.5Q392 170 392 233V536H542V0H405L403 87Q362 -12 242 -12Z" fill="#F5F0E8"/>  <path transform="translate(77.860,20.000) scale(0.0200,-0.0200)" d="M66 0V536H201L204 447Q226 502 268.0 525.0Q310 548 363 548Q450 548 497.5 493.0Q545 438 545 345V0H395V295Q395 359 377.5 394.0Q360 429 313 429Q266 429 241.0 394.0Q216 359 216 295V0Z" fill="#F5F0E8"/>  <path transform="translate(89.680,20.000) scale(0.0200,-0.0200)" d="M309 -12Q227 -12 165.5 23.0Q104 58 70.5 120.5Q37 183 37 268Q37 352 70.5 415.0Q104 478 165.5 513.0Q227 548 309 548Q380 548 436.5 523.0Q493 498 528.0 451.0Q563 404 571 338L416 331Q409 381 380.5 406.5Q352 432 309 432Q253 432 222.0 389.0Q191 346 191 268Q191 190 222.0 146.5Q253 103 309 103Q352 103 381.0 129.5Q410 156 416 210L571 204Q564 138 529.5 89.5Q495 41 438.5 14.5Q382 -12 309 -12Z" fill="#F5F0E8"/>  <path transform="translate(101.240,20.000) scale(0.0200,-0.0200)" d="M66 0V710H216V470Q238 510 277.0 529.0Q316 548 364 548Q454 548 499.5 491.0Q545 434 545 345V0H395V309Q395 369 376.0 399.0Q357 429 314 429Q268 429 242.0 397.5Q216 366 216 305V0Z" fill="#F5F0E8"/>
  
  <g transform="translate(0,26) scale(0.018)">
    <circle cx="182.4" cy="244.8" r="45" fill="#C4704F"/>
    <circle cx="140.4" cy="286.8" r="45" fill="#C4704F"/>
    <circle cx="182.4" cy="286.8" r="45" fill="#C4704F"/>
    <circle cx="223.2" cy="286.8" r="45" fill="#C4704F"/>
    <circle cx="182.4" cy="328.8" r="45" fill="#C4704F"/>
    <circle cx="516" cy="369.6" r="45" fill="#C4704F"/>
    <circle cx="474" cy="411.6" r="45" fill="#C4704F"/>
    <circle cx="516" cy="411.6" r="45" fill="#F5F0E8"/>
    <circle cx="474" cy="453.6" r="45" fill="#C4704F"/>
    <circle cx="516" cy="453.6" r="45" fill="#C4704F"/>
    <circle cx="558" cy="453.6" r="45" fill="#C4704F"/>
    <circle cx="684" cy="495.6" r="45" fill="#C4704F"/>
    <circle cx="726" cy="495.6" r="45" fill="#C4704F"/>
    <circle cx="767.4" cy="495.6" r="45" fill="#C4704F"/>
    <circle cx="767.4" cy="537.6" r="45" fill="#C4704F"/>
    <circle cx="809.4" cy="537.6" r="45" fill="#C4704F"/>
    <circle cx="851.4" cy="537.6" r="45" fill="#C4704F"/>
    <circle cx="726" cy="579.6" r="45" fill="#C4704F"/>
    <circle cx="809.4" cy="579.6" r="45" fill="#C4704F"/>
    <circle cx="851.4" cy="579.6" r="45" fill="#C4704F"/>
    <circle cx="893.4" cy="579.6" r="45" fill="#C4704F"/>
    <circle cx="935.4" cy="579.6" r="45" fill="#C4704F"/>
    <circle cx="851.4" cy="620.4" r="45" fill="#C4704F"/>
    <circle cx="893.4" cy="620.4" r="45" fill="#C4704F"/>
    <circle cx="977.4" cy="704.4" r="45" fill="#C4704F"/>
    <circle cx="977.4" cy="746.4" r="45" fill="#C4704F"/>
    <circle cx="1018.2" cy="746.4" r="45" fill="#C4704F"/>
    <circle cx="1060.2" cy="746.4" r="45" fill="#C4704F"/>
    <circle cx="935.4" cy="788.4" r="45" fill="#C4704F"/>
    <circle cx="977.4" cy="788.4" r="45" fill="#C4704F"/>
    <circle cx="1018.2" cy="788.4" r="45" fill="#C4704F"/>
    <circle cx="1060.2" cy="788.4" r="45" fill="#C4704F"/>
    <circle cx="1101.6" cy="788.4" r="45" fill="#C4704F"/>
    <circle cx="935.4" cy="830.4" r="45" fill="#C4704F"/>
    <circle cx="977.4" cy="830.4" r="45" fill="#C4704F"/>
    <circle cx="1018.2" cy="830.4" r="45" fill="#C4704F"/>
    <circle cx="1060.2" cy="830.4" r="45" fill="#C4704F"/>
    <circle cx="1101.6" cy="830.4" r="45" fill="#C4704F"/>
    <circle cx="1143.6" cy="830.4" r="45" fill="#C4704F"/>
    <circle cx="977.4" cy="871.2" r="45" fill="#C4704F"/>
    <circle cx="1018.2" cy="871.2" r="45" fill="#C4704F"/>
    <circle cx="1060.2" cy="871.2" r="45" fill="#C4704F"/>
    <circle cx="1101.6" cy="871.2" r="45" fill="#C4704F"/>
    <circle cx="1143.6" cy="871.2" r="45" fill="#C4704F"/>
    <circle cx="1185.6" cy="871.2" r="45" fill="#C4704F"/>
    <circle cx="977.4" cy="913.2" r="45" fill="#C4704F"/>
    <circle cx="1018.2" cy="913.2" r="45" fill="#C4704F"/>
    <circle cx="1060.2" cy="913.2" r="45" fill="#C4704F"/>
    <circle cx="1101.6" cy="913.2" r="45" fill="#C4704F"/>
    <circle cx="977.4" cy="955.2" r="45" fill="#C4704F"/>
    <circle cx="1018.2" cy="955.2" r="45" fill="#C4704F"/>
  </g>
  <path transform="translate(28.000,44.000) scale(0.0200,-0.0200)" d="M375 -16Q278 -16 203.0 28.0Q128 72 85.0 155.0Q42 238 42 354Q42 467 83.5 550.5Q125 634 200.5 680.0Q276 726 378 726Q517 726 594.0 657.5Q671 589 694 462L536 456Q524 523 484.0 560.5Q444 598 378 598Q293 598 246.0 531.5Q199 465 199 354Q199 242 247.0 177.0Q295 112 377 112Q448 112 488.0 152.5Q528 193 538 265L697 259Q675 129 594.5 56.5Q514 -16 375 -16Z" fill="#F5F0E8"/>  <path transform="translate(42.280,44.000) scale(0.0200,-0.0200)" d="M309 -12Q227 -12 166.0 22.5Q105 57 71.0 120.0Q37 183 37 268Q37 353 71.0 415.5Q105 478 166.0 513.0Q227 548 309 548Q391 548 452.5 513.0Q514 478 547.5 415.5Q581 353 581 268Q581 183 547.5 120.0Q514 57 452.5 22.5Q391 -12 309 -12ZM309 103Q365 103 396.0 146.5Q427 190 427 268Q427 346 396.0 389.5Q365 433 309 433Q253 433 222.0 389.5Q191 346 191 268Q191 190 222.0 146.5Q253 103 309 103Z" fill="#F5F0E8"/>  <path transform="translate(54.240,44.000) scale(0.0200,-0.0200)" d="M206 0Q140 0 103.0 32.5Q66 65 66 140V710H216V156Q216 132 227.0 122.0Q238 112 259 112H295V0Z" fill="#F5F0E8"/>  <path transform="translate(60.100,44.000) scale(0.0200,-0.0200)" d="M206 0Q140 0 103.0 32.5Q66 65 66 140V710H216V156Q216 132 227.0 122.0Q238 112 259 112H295V0Z" fill="#F5F0E8"/>  <path transform="translate(65.960,44.000) scale(0.0200,-0.0200)" d="M307 -12Q225 -12 164.5 23.0Q104 58 70.5 120.5Q37 183 37 268Q37 352 70.0 415.0Q103 478 163.5 513.0Q224 548 306 548Q386 548 445.0 513.0Q504 478 536.5 413.0Q569 348 569 258V228H192Q195 164 226.5 133.0Q258 102 310 102Q388 102 410 167L561 158Q539 78 471.5 33.0Q404 -12 307 -12ZM192 320H415Q412 379 382.5 408.0Q353 437 306 437Q259 437 228.5 406.5Q198 376 192 320Z" fill="#F5F0E8"/>  <path transform="translate(77.660,44.000) scale(0.0200,-0.0200)" d="M309 -12Q227 -12 165.5 23.0Q104 58 70.5 120.5Q37 183 37 268Q37 352 70.5 415.0Q104 478 165.5 513.0Q227 548 309 548Q380 548 436.5 523.0Q493 498 528.0 451.0Q563 404 571 338L416 331Q409 381 380.5 406.5Q352 432 309 432Q253 432 222.0 389.0Q191 346 191 268Q191 190 222.0 146.5Q253 103 309 103Q352 103 381.0 129.5Q410 156 416 210L571 204Q564 138 529.5 89.5Q495 41 438.5 14.5Q382 -12 309 -12Z" fill="#F5F0E8"/>  <path transform="translate(89.220,44.000) scale(0.0200,-0.0200)" d="M288 0Q205 0 166.0 38.5Q127 77 127 161V424H41V536H127V662H277V536H418V424H277V179Q277 140 293.5 126.0Q310 112 343 112H418V0Z" fill="#F5F0E8"/>  <path transform="translate(97.720,44.000) scale(0.0200,-0.0200)" d="M66 0V536H216V0ZM63 602V722H218V602Z" fill="#F5F0E8"/>  <path transform="translate(102.940,44.000) scale(0.0200,-0.0200)" d="M217 0 21 536H178L305 151L431 536H588L391 0Z" fill="#F5F0E8"/>  <path transform="translate(114.720,44.000) scale(0.0200,-0.0200)" d="M307 -12Q225 -12 164.5 23.0Q104 58 70.5 120.5Q37 183 37 268Q37 352 70.0 415.0Q103 478 163.5 513.0Q224 548 306 548Q386 548 445.0 513.0Q504 478 536.5 413.0Q569 348 569 258V228H192Q195 164 226.5 133.0Q258 102 310 102Q388 102 410 167L561 158Q539 78 471.5 33.0Q404 -12 307 -12ZM192 320H415Q412 379 382.5 408.0Q353 437 306 437Q259 437 228.5 406.5Q198 376 192 320Z" fill="#F5F0E8"/>
  <text x="26" y="56" font-family="system-ui, -apple-system, sans-serif" font-size="7.5" font-weight="500" fill="#F5F0E8" letter-spacing="0.12em">WIKI</text>
</svg>